Coordinates
version=1
nRows=8
nColumns=55
inDegrees=yes

Units are S.I. units (second, meters, Newtons, ...)
If the header above contains a line with 'inDegrees', this indicates whether rotational values are in degrees (yes) or radians (no).

endheader
time	pelvis_tilt	pelvis_list	pelvis_rotation	pelvis_tx	pelvis_ty	pelvis_tz	hip_flexion_r	hip_adduction_r	hip_rotation_r	knee_angle_r	knee_angle_r_beta	ankle_angle_r	subtalar_angle_r	mtp_angle_r	hip_flexion_l	hip_adduction_l	hip_rotation_l	knee_angle_l	knee_angle_l_beta	ankle_angle_l	subtalar_angle_l	mtp_angle_l	lumbar_extension	lumbar_bending	lumbar_rotation	torso_tx	torso_ty	torso_tz	arm_flex_r	arm_add_r	arm_rot_r	shoulder_rx	shoulder_ry	shoulder_rz	elbow_flex_r	pro_sup_r	wrist_flex_r	wrist_dev_r	arm_flex_l	arm_add_l	arm_rot_l	shoulder_lx	shoulder_ly	shoulder_lz	elbow_flex_l	pro_sup_l	wrist_flex_l	wrist_dev_l	neck_extension	neck_bending	neck_rotation	head_tx	head_ty	head_tz
      0.01000000	      2.21799414	      0.08113585	     -2.15370692	      0.38284632	      0.95104484	     -0.17758568	     -7.05766220	     -8.33070330	     -6.10309648	     -2.99834269	     -0.05233095	      1.40647405	      8.15139815	      0.26512391	     -5.34003858	     -7.03362429	    -11.42249421	      0.35015214	      0.00611131	      0.30265991	      0.09902276	      0.61933376	      1.17012245	     -1.66249555	      3.71657787	      0.08106941	      0.02110223	     -0.00300179	    -12.63649550	     -8.50808025	     13.57327207	     -0.01854392	     -0.04489730	     -0.01846065	     25.06652116	      4.40423764	      4.36333821	     -3.89210170	     -8.54168885	    -10.30837103	     11.94076809	     -0.00551619	     -0.05172152	      0.01675037	     25.65997689	      5.74331949	      5.21199072	     -4.04392707	     20.07839413	     -0.33467717	     -3.01998856	      0.02029759	      0.02204804	      0.00049078
      0.02000000	      2.21799414	      0.08113585	     -2.15370692	      0.38284632	      0.95104484	     -0.17758568	     -7.05766220	     -8.33070330	     -6.10309648	     -2.99834269	     -0.05233095	      1.40647405	      8.15139815	      0.26512391	     -5.34003858	     -7.03362429	    -11.42249421	      0.35015214	      0.00611131	      0.30265991	      0.09902276	      0.61933376	      1.17012245	     -1.66249555	      3.71657787	      0.08106941	      0.02110223	     -0.00300179	    -12.63649550	     -8.50808025	     13.57327207	     -0.01854392	     -0.04489730	     -0.01846065	     25.06652116	      4.40423764	      4.36333821	     -3.89210170	     -8.54168885	    -10.30837103	     11.94076809	     -0.00551619	     -0.05172152	      0.01675037	     25.65997689	      5.74331949	      5.21199072	     -4.04392707	     20.07839413	     -0.33467717	     -3.01998856	      0.02029759	      0.02204804	      0.00049078
      0.03000000	      2.21799414	      0.08113585	     -2.15370692	      0.38284632	      0.95104484	     -0.17758568	     -7.05766220	     -8.33070330	     -6.10309648	     -2.99834269	     -0.05233095	      1.40647405	      8.15139815	      0.26512391	     -5.34003858	     -7.03362429	    -11.42249421	      0.35015214	      0.00611131	      0.30265991	      0.09902276	      0.61933376	      1.17012245	     -1.66249555	      3.71657787	      0.08106941	      0.02110223	     -0.00300179	    -12.63649550	     -8.50808025	     13.57327207	     -0.01854392	     -0.04489730	     -0.01846065	     25.06652116	      4.40423764	      4.36333821	     -3.89210170	     -8.54168885	    -10.30837103	     11.94076809	     -0.00551619	     -0.05172152	      0.01675037	     25.65997689	      5.74331949	      5.21199072	     -4.04392707	     20.07839413	     -0.33467717	     -3.01998856	      0.02029759	      0.02204804	      0.00049078
      0.04000000	      2.21799414	      0.08113585	     -2.15370692	      0.38284632	      0.95104484	     -0.17758568	     -7.05766220	     -8.33070330	     -6.10309648	     -2.99834269	     -0.05233095	      1.40647405	      8.15139815	      0.26512391	     -5.34003858	     -7.03362429	    -11.42249421	      0.35015214	      0.00611131	      0.30265991	      0.09902276	      0.61933376	      1.17012245	     -1.66249555	      3.71657787	      0.08106941	      0.02110223	     -0.00300179	    -12.63649550	     -8.50808025	     13.57327207	     -0.01854392	     -0.04489730	     -0.01846065	     25.06652116	      4.40423764	      4.36333821	     -3.89210170	     -8.54168885	    -10.30837103	     11.94076809	     -0.00551619	     -0.05172152	      0.01675037	     25.65997689	      5.74331949	      5.21199072	     -4.04392707	     20.07839413	     -0.33467717	     -3.01998856	      0.02029759	      0.02204804	      0.00049078
      0.05000000	      2.21799414	      0.08113585	     -2.15370692	      0.38284632	      0.95104484	     -0.17758568	     -7.05766220	     -8.33070330	     -6.10309648	     -2.99834269	     -0.05233095	      1.40647405	      8.15139815	      0.26512391	     -5.34003858	     -7.03362429	    -11.42249421	      0.35015214	      0.00611131	      0.30265991	      0.09902276	      0.61933376	      1.17012245	     -1.66249555	      3.71657787	      0.08106941	      0.02110223	     -0.00300179	    -12.63649550	     -8.50808025	     13.57327207	     -0.01854392	     -0.04489730	     -0.01846065	     25.06652116	      4.40423764	      4.36333821	     -3.89210170	     -8.54168885	    -10.30837103	     11.94076809	     -0.00551619	     -0.05172152	      0.01675037	     25.65997689	      5.74331949	      5.21199072	     -4.04392707	     20.07839413	     -0.33467717	     -3.01998856	      0.02029759	      0.02204804	      0.00049078
      0.06000000	      2.21799414	      0.08113585	     -2.15370692	      0.38284632	      0.95104484	     -0.17758568	     -7.05766220	     -8.33070330	     -6.10309648	     -2.99834269	     -0.05233095	      1.40647405	      8.15139815	      0.26512391	     -5.34003858	     -7.03362429	    -11.42249421	      0.35015214	      0.00611131	      0.30265991	      0.09902276	      0.61933376	      1.17012245	     -1.66249555	      3.71657787	      0.08106941	      0.02110223	     -0.00300179	    -12.63649550	     -8.50808025	     13.57327207	     -0.01854392	     -0.04489730	     -0.01846065	     25.06652116	      4.40423764	      4.36333821	     -3.89210170	     -8.54168885	    -10.30837103	     11.94076809	     -0.00551619	     -0.05172152	      0.01675037	     25.65997689	      5.74331949	      5.21199072	     -4.04392707	     20.07839413	     -0.33467717	     -3.01998856	      0.02029759	      0.02204804	      0.00049078
      0.07000000	      2.21526622	      0.08618676	     -2.15365898	      0.38285508	      0.95114499	     -0.17760926	     -7.05936176	     -8.32839547	     -6.10352256	     -2.99763935	     -0.05231868	      1.40699815	      8.15194980	      0.26507267	     -5.34202884	     -7.03578127	    -11.42254152	      0.34982503	      0.00610560	      0.30366600	      0.09990143	      0.61924473	      1.17028638	     -1.66237543	      3.71718528	      0.08109874	      0.02119199	     -0.00292021	    -12.63544806	     -8.51000184	     13.57436350	     -0.01851234	     -0.04486295	     -0.01836928	     25.06603039	      4.40462083	      4.36304893	     -3.89278263	     -8.54092461	    -10.30835411	     11.94211995	     -0.00550376	     -0.05165054	      0.01675655	     25.65977742	      5.74389677	      5.21180629	     -4.04455301	     20.07840263	     -0.33464123	     -3.01994652	      0.02025953	      0.02201699	      0.00050525
      0.08000000	      2.21526622	      0.08618676	     -2.15365898	      0.38285508	      0.95114499	     -0.17760926	     -7.05936176	     -8.32839547	     -6.10352256	     -2.99763935	     -0.05231868	      1.40699815	      8.15194980	      0.26507267	     -5.34202884	     -7.03578127	    -11.42254152	      0.34982503	      0.00610560	      0.30366600	      0.09990143	      0.61924473	      1.17028638	     -1.66237543	      3.71718528	      0.08109874	      0.02119199	     -0.00292021	    -12.63544806	     -8.51000184	     13.57436350	     -0.01851234	     -0.04486295	     -0.01836928	     25.06603039	      4.40462083	      4.36304893	     -3.89278263	     -8.54092461	    -10.30835411	     11.94211995	     -0.00550376	     -0.05165054	      0.01675655	     25.65977742	      5.74389677	      5.21180629	     -4.04455301	     20.07840263	     -0.33464123	     -3.01994652	      0.02025953	      0.02201699	      0.00050525
